<svg xmlns="http://www.w3.org/2000/svg" version="1.1" xmlns:xlink="http://www.w3.org/1999/xlink" xmlns:svgjs="http://svgjs.dev/svgjs" width="2000" height="398" viewBox="0 0 2000 398"><g transform="matrix(1,0,0,1,-1.2121212121212466,-1.3397693129040533)"><svg viewBox="0 0 396 79" data-background-color="#111111" preserveAspectRatio="xMidYMid meet" height="398" width="2000" xmlns="http://www.w3.org/2000/svg" xmlns:xlink="http://www.w3.org/1999/xlink"><g id="tight-bounds" transform="matrix(1,0,0,1,0.2400000000000091,0.265934109847791)"><svg viewBox="0 0 395.52 78.4681317803044" height="78.4681317803044" width="395.52"><g><svg viewBox="0 0 521.0903066630163 103.380316678481" height="78.4681317803044" width="395.52"><g transform="matrix(1,0,0,1,125.57030666301634,18.783258454315295)"><svg viewBox="0 0 395.52 65.8137997698504" height="65.8137997698504" width="395.52"><g id="textblocktransform"><svg viewBox="0 0 395.52 65.8137997698504" height="65.8137997698504" width="395.52" id="textblock"><g><svg viewBox="0 0 395.52 65.8137997698504" height="65.8137997698504" width="395.52"><g transform="matrix(1,0,0,1,0,0)"><svg width="395.52" viewBox="4.2 -35.45 217.23000000000002 36.150000000000006" height="65.8137997698504" data-palette-color="#ffffff"><path d="M10.65 0L4.2 0 4.2-34.85 13.55-34.85Q17.1-34.85 20-33.77 22.9-32.7 24.63-30.04 26.35-27.38 26.35-22.65L26.35-22.65Q26.35-19.23 25.05-16.19 23.75-13.15 20.96-11.25 18.18-9.35 13.75-9.35L13.75-9.35 10.65-9.35 10.65 0ZM13.15-29.8L13.15-29.8 10.65-29.8 10.65-14.6 13.3-14.6Q16.6-14.6 18.25-16.57 19.9-18.55 19.9-22.3L19.9-22.3Q19.9-26.13 18.4-27.96 16.9-29.8 13.15-29.8ZM45.6-12.1L54.6 0 46.85 0 37.9-12.6 37.9 0 31.55 0 31.55-34.85 41.25-34.85Q44.8-34.85 47.6-33.81 50.4-32.77 52.02-30.35 53.65-27.93 53.65-23.75L53.65-23.75Q53.65-21.48 52.89-19.06 52.12-16.65 50.36-14.75 48.6-12.85 45.6-12.1L45.6-12.1ZM37.9-29.85L37.9-15.75 40.55-15.75Q42.75-15.75 44.23-16.79 45.72-17.82 46.48-19.51 47.25-21.2 47.25-23.15L47.25-23.15Q47.25-26.53 45.7-28.19 44.15-29.85 40.4-29.85L40.4-29.85 37.9-29.85ZM62.35 0L55.35 0 70.1-35.45 70.6-35.45 85.4 0 78.6 0 76.65-5.05 64.2-5.05 62.35 0ZM70.3-22.2L69.5-19.4 66-9.9 74.8-9.9 71.15-19.4 70.3-22.2ZM94.94 0L88.74 0 88.74-35.45 89.24-35.45 103.34-18.82 117.34-35.45 117.89-35.45 117.89 0 111.69 0 111.69-14.95 111.92-20.85 110.14-18.15 103.29-10.1 96.44-18.15 94.67-20.85 94.94-14.95 94.94 0ZM128.24 0L121.24 0 135.99-35.45 136.49-35.45 151.29 0 144.49 0 142.54-5.05 130.09-5.05 128.24 0ZM136.19-22.2L135.39-19.4 131.89-9.9 140.69-9.9 137.04-19.4 136.19-22.2ZM179.29 0.7L178.79 0.7 162.09-18.35 160.54-20.35 160.79-15.5 160.79 0 154.64 0 154.64-35.45 155.19-35.45 171.64-16.25 173.39-13.98 173.14-18.75 173.14-34.85 179.29-34.85 179.29 0.7ZM193.94 0L187.54 0 187.54-34.85 193.94-34.85 193.94 0ZM213.38 0L206.93 0 206.93-29.2 198.88-29.2 198.88-34.85 221.43-34.85 221.43-29.2 213.38-29.2 213.38 0Z" opacity="1" transform="matrix(1,0,0,1,0,0)" fill="#ffffff" class="wordmark-text-0" data-fill-palette-color="primary" id="text-0"></path></svg></g></svg></g></svg></g></svg></g><g><svg viewBox="0 0 110.03324806854913 103.380316678481" height="103.380316678481" width="110.03324806854913"><g><svg xmlns="http://www.w3.org/2000/svg" xmlns:xlink="http://www.w3.org/1999/xlink" version="1.1" x="0" y="0" viewBox="0.4999999999999999 1.9 47.044444444444444 44.20000000000001" enable-background="new 0 0 48 48" xml:space="preserve" height="103.380316678481" width="110.03324806854913" class="icon-icon-0" data-fill-palette-color="accent" id="icon-0"><g fill="#fccd2a" data-fill-palette-color="accent"><path fill="#fccd2a" d="M14.2 16.1L0.6 2.5C0.4 2.3 0.5 1.9 0.9 1.9H14.5C14.7 1.9 14.9 2.1 14.9 2.3V15.9C14.8 16.2 14.4 16.3 14.2 16.1" data-fill-palette-color="accent"></path><path fill="#fccd2a" d="M40 12.9L47.4 5.5C47.7 5.2 47.5 4.8 47.1 4.8H39.7C39.5 4.8 39.3 5 39.3 5.2V12.6C39.3 13 39.8 13.2 40 12.9" data-fill-palette-color="accent"></path><path fill="#fccd2a" d="M36.6 16.5V6.5C36.6 6.1 36.2 6 35.9 6.2L30.9 11.2C30.7 11.4 30.7 11.6 30.9 11.8L35.9 16.8C36.2 17.1 36.6 16.9 36.6 16.5" data-fill-palette-color="accent"></path><path fill="#fccd2a" d="M7.6 35.3V45.7C7.6 46.1 8 46.2 8.3 46L13.5 40.8C13.7 40.6 13.7 40.4 13.5 40.2L8.2 35C8 34.8 7.6 35 7.6 35.3" data-fill-palette-color="accent"></path><path fill="#fccd2a" d="M17.5 3.1V37.1C17.5 37.5 17.9 37.6 18.2 37.4L35.2 20.4C35.4 20.2 35.4 20 35.2 19.8L18.2 2.8C17.9 2.6 17.5 2.8 17.5 3.1" data-fill-palette-color="accent"></path><path fill="#fccd2a" d="M14.8 26.3V36.7C14.8 37.1 14.4 37.2 14.1 37L9 31.8C8.8 31.6 8.8 31.4 9 31.2L14.2 26C14.4 25.8 14.8 25.9 14.8 26.3" data-fill-palette-color="accent"></path></g></svg></g></svg></g></svg></g><defs></defs></svg><rect width="395.52" height="78.4681317803044" fill="none" stroke="none" visibility="hidden"></rect></g></svg></g></svg>