<svg id="svg" version="1.1" xmlns="http://www.w3.org/2000/svg" xmlns:xlink="http://www.w3.org/1999/xlink" width="400" height="79.6" viewBox="0, 0, 400,79.6"><g id="svgg"><path id="path0" d="M0.700 0.367 C 0.166 0.901,0.513 1.278,12.893 13.633 C 25.559 26.274,25.541 26.257,26.344 25.827 C 26.743 25.614,26.863 0.763,26.467 0.367 C 26.177 0.077,0.990 0.077,0.700 0.367 M31.173 1.865 C 30.666 2.409,30.632 63.266,31.138 63.724 C 31.875 64.391,32.278 64.156,34.875 61.542 C 36.218 60.190,43.171 53.244,50.325 46.107 C 59.529 36.926,63.333 33.026,63.333 32.771 C 63.333 32.516,58.824 27.911,47.847 16.956 C 31.355 0.495,31.949 1.033,31.173 1.865 M70.116 5.630 C 69.670 6.123,69.706 19.424,70.155 19.958 C 70.856 20.793,70.878 20.775,78.243 13.417 C 85.299 6.367,85.546 6.075,84.875 5.565 C 84.362 5.176,70.472 5.237,70.116 5.630 M64.208 7.610 C 63.546 7.878,54.667 17.042,54.667 17.458 C 54.667 17.934,63.083 26.593,64.033 27.096 C 65.524 27.883,65.500 28.042,65.500 17.257 L 65.500 7.825 65.072 7.663 C 64.611 7.487,64.526 7.482,64.208 7.610 M20.417 47.827 C 16.622 51.616,15.573 52.756,15.533 53.131 C 15.489 53.556,15.998 54.128,20.200 58.374 C 25.009 63.232,25.295 63.467,26.061 63.175 L 26.500 63.008 26.500 53.268 C 26.500 42.619,26.527 43.000,25.774 43.000 C 25.310 43.001,24.696 43.554,20.417 47.827 M13.505 59.325 C 13.388 59.543,13.345 62.884,13.374 69.450 L 13.417 79.250 13.809 79.305 C 14.024 79.336,14.377 79.317,14.593 79.262 C 15.178 79.116,24.500 69.710,24.500 69.267 C 24.500 69.022,22.946 67.369,19.506 63.956 C 14.318 58.807,13.938 58.515,13.505 59.325 " stroke="none" fill="#ffffff" fill-rule="evenodd"></path><path id="path1" d="M188.235 14.917 C 188.178 15.146,188.070 15.333,187.996 15.333 C 187.922 15.333,187.699 15.858,187.500 16.500 C 187.301 17.142,187.076 17.667,187.000 17.667 C 186.924 17.667,186.699 18.192,186.500 18.833 C 186.301 19.475,186.083 20.000,186.015 20.000 C 185.948 20.000,185.716 20.563,185.500 21.250 C 185.284 21.938,185.052 22.500,184.985 22.500 C 184.917 22.500,184.699 23.025,184.500 23.667 C 184.301 24.308,184.083 24.833,184.015 24.833 C 183.948 24.833,183.716 25.396,183.500 26.083 C 183.284 26.771,183.052 27.333,182.985 27.333 C 182.917 27.333,182.699 27.858,182.500 28.500 C 182.301 29.142,182.076 29.667,182.000 29.667 C 181.924 29.667,181.699 30.192,181.500 30.833 C 181.301 31.475,181.083 32.000,181.015 32.000 C 180.948 32.000,180.716 32.563,180.500 33.250 C 180.284 33.938,180.052 34.500,179.985 34.500 C 179.917 34.500,179.699 35.025,179.500 35.667 C 179.301 36.308,179.083 36.833,179.015 36.833 C 178.948 36.833,178.716 37.396,178.500 38.083 C 178.284 38.771,178.056 39.333,177.993 39.333 C 177.930 39.333,177.708 39.840,177.500 40.458 C 177.292 41.077,177.068 41.621,177.002 41.667 C 176.937 41.712,176.715 42.237,176.511 42.832 C 176.307 43.427,176.082 43.952,176.011 43.999 C 175.941 44.045,175.711 44.608,175.500 45.250 C 175.289 45.892,175.063 46.454,174.997 46.500 C 174.932 46.546,174.708 47.090,174.500 47.708 C 174.292 48.327,174.066 48.833,173.997 48.833 C 173.928 48.833,173.832 49.002,173.783 49.208 C 173.640 49.809,173.151 51.072,173.026 51.165 C 172.962 51.212,172.730 51.775,172.510 52.417 C 172.289 53.058,172.058 53.621,171.996 53.667 C 171.934 53.712,171.715 54.237,171.511 54.832 C 171.307 55.427,171.088 55.952,171.025 55.999 C 170.962 56.045,170.730 56.608,170.510 57.250 C 170.289 57.892,170.057 58.454,169.993 58.500 C 169.930 58.546,169.708 59.090,169.500 59.708 C 169.292 60.327,169.066 60.833,168.997 60.833 C 168.928 60.833,168.831 61.002,168.781 61.208 C 168.579 62.040,168.118 63.167,167.980 63.167 C 167.899 63.167,167.833 63.354,167.833 63.583 L 167.833 64.000 172.968 64.000 L 178.103 64.000 178.468 62.784 C 178.669 62.115,178.833 61.478,178.833 61.367 C 178.833 61.257,178.899 61.167,178.979 61.167 C 179.059 61.167,179.298 60.567,179.510 59.833 C 179.722 59.100,179.947 58.500,180.009 58.500 C 180.072 58.500,180.218 58.163,180.333 57.750 L 180.543 57.000 188.995 57.000 L 197.447 57.000 197.659 57.708 C 197.775 58.098,197.926 58.454,197.994 58.500 C 198.062 58.546,198.289 59.108,198.500 59.750 C 198.711 60.392,198.931 60.954,198.989 61.000 C 199.047 61.046,199.278 61.646,199.502 62.333 C 199.726 63.021,199.999 63.677,200.109 63.792 C 200.364 64.057,210.167 64.098,210.167 63.833 C 210.167 63.742,210.105 63.667,210.029 63.667 C 209.954 63.667,209.716 63.104,209.500 62.417 C 209.284 61.729,209.052 61.167,208.985 61.167 C 208.917 61.167,208.699 60.642,208.500 60.000 C 208.301 59.358,208.076 58.833,208.000 58.833 C 207.924 58.833,207.699 58.308,207.500 57.667 C 207.301 57.025,207.083 56.500,207.015 56.500 C 206.948 56.500,206.716 55.938,206.500 55.250 C 206.284 54.563,206.052 54.000,205.985 54.000 C 205.917 54.000,205.699 53.475,205.500 52.833 C 205.301 52.192,205.087 51.667,205.024 51.667 C 204.961 51.667,204.726 51.123,204.503 50.458 C 204.280 49.794,204.044 49.212,203.978 49.165 C 203.850 49.073,203.362 47.821,203.217 47.208 C 203.168 47.002,203.072 46.833,203.003 46.833 C 202.934 46.833,202.708 46.327,202.500 45.708 C 202.292 45.090,202.070 44.546,202.007 44.500 C 201.943 44.454,201.711 43.892,201.490 43.250 C 201.270 42.608,201.038 42.045,200.974 41.998 C 200.849 41.905,200.360 40.642,200.217 40.042 C 200.168 39.835,200.072 39.667,200.003 39.667 C 199.934 39.667,199.708 39.160,199.500 38.542 C 199.292 37.923,199.070 37.379,199.007 37.333 C 198.943 37.287,198.710 36.725,198.489 36.083 C 198.268 35.442,198.007 34.832,197.909 34.729 C 197.812 34.626,197.593 34.082,197.423 33.521 C 197.253 32.959,197.063 32.500,197.002 32.500 C 196.940 32.500,196.710 31.956,196.490 31.292 C 196.271 30.627,196.000 29.988,195.888 29.872 C 195.776 29.756,195.552 29.212,195.389 28.664 C 195.226 28.115,195.041 27.667,194.977 27.667 C 194.913 27.667,194.693 27.160,194.489 26.542 C 194.284 25.923,194.062 25.379,193.995 25.333 C 193.928 25.287,193.696 24.725,193.480 24.083 C 193.263 23.442,193.007 22.832,192.909 22.729 C 192.812 22.626,192.593 22.082,192.423 21.521 C 192.253 20.959,192.063 20.500,192.002 20.500 C 191.940 20.500,191.710 19.956,191.490 19.292 C 191.271 18.627,191.000 17.988,190.888 17.872 C 190.776 17.756,190.552 17.212,190.389 16.664 C 190.226 16.115,190.040 15.667,189.976 15.667 C 189.912 15.667,189.773 15.404,189.667 15.083 C 189.415 14.320,188.414 14.203,188.235 14.917 M214.333 39.250 L 214.333 64.000 218.853 64.000 L 223.373 64.000 223.307 49.987 C 223.271 42.279,223.272 36.073,223.310 36.195 C 223.348 36.317,223.631 36.764,223.940 37.189 C 224.248 37.614,224.500 38.028,224.500 38.110 C 224.500 38.192,224.706 38.494,224.958 38.781 C 225.210 39.068,225.679 39.617,226.000 40.001 C 226.321 40.386,226.864 41.011,227.206 41.392 C 227.549 41.772,227.830 42.129,227.831 42.184 C 227.832 42.240,228.152 42.622,228.542 43.035 C 228.931 43.447,229.512 44.105,229.833 44.496 C 230.154 44.887,230.623 45.415,230.875 45.670 C 231.127 45.925,231.333 46.197,231.333 46.275 C 231.333 46.353,231.559 46.641,231.835 46.917 C 232.643 47.721,233.667 48.905,233.667 49.034 C 233.667 49.779,235.068 50.175,235.404 49.525 C 235.539 49.263,235.841 48.924,236.075 48.771 C 236.309 48.618,236.500 48.398,236.500 48.283 C 236.500 48.168,236.706 47.883,236.958 47.649 C 237.463 47.181,238.497 45.949,238.735 45.532 C 238.819 45.386,239.100 45.087,239.360 44.868 C 239.620 44.649,239.833 44.411,239.833 44.339 C 239.833 44.221,240.339 43.641,241.831 42.046 C 242.107 41.751,242.333 41.435,242.333 41.343 C 242.333 41.252,242.558 41.010,242.833 40.807 C 243.108 40.604,243.333 40.355,243.333 40.255 C 243.333 40.155,243.577 39.843,243.875 39.562 C 244.173 39.281,244.529 38.837,244.667 38.576 C 244.804 38.315,245.085 37.917,245.292 37.693 C 245.498 37.468,245.667 37.187,245.667 37.067 C 245.667 36.948,245.767 36.790,245.890 36.717 C 246.012 36.643,246.181 36.457,246.265 36.303 C 246.357 36.134,246.394 41.535,246.359 50.012 L 246.300 64.000 250.817 64.000 L 255.333 64.000 255.333 39.250 L 255.333 14.500 254.583 14.500 C 254.171 14.500,253.833 14.563,253.833 14.641 C 253.833 14.805,252.985 15.829,252.208 16.604 C 251.910 16.901,251.667 17.219,251.667 17.310 C 251.667 17.401,251.498 17.613,251.291 17.780 C 251.084 17.947,250.793 18.271,250.644 18.500 C 250.496 18.729,250.196 19.117,249.979 19.362 C 249.761 19.607,249.358 20.085,249.083 20.424 C 248.808 20.763,248.340 21.280,248.042 21.574 C 247.744 21.867,247.500 22.174,247.500 22.256 C 247.500 22.337,247.313 22.594,247.085 22.827 C 246.388 23.537,245.893 24.114,245.484 24.695 C 245.268 25.000,244.922 25.387,244.713 25.554 C 244.504 25.721,244.333 25.950,244.333 26.064 C 244.333 26.178,244.108 26.437,243.833 26.640 C 243.558 26.844,243.333 27.090,243.333 27.188 C 243.333 27.286,243.127 27.575,242.875 27.830 C 242.623 28.085,242.177 28.583,241.884 28.938 C 241.591 29.293,241.087 29.883,240.763 30.250 C 240.439 30.617,240.173 30.978,240.171 31.052 C 240.168 31.127,239.942 31.378,239.667 31.609 C 239.392 31.840,239.167 32.089,239.167 32.161 C 239.167 32.233,238.848 32.634,238.458 33.052 C 238.069 33.469,237.525 34.092,237.250 34.436 C 236.975 34.779,236.544 35.277,236.292 35.543 C 236.040 35.808,235.833 36.083,235.833 36.153 C 235.833 36.223,235.571 36.519,235.250 36.811 C 234.929 37.103,234.667 37.277,234.667 37.197 C 234.667 37.118,234.254 36.613,233.750 36.076 C 233.246 35.538,232.832 35.058,232.829 35.008 C 232.827 34.958,232.561 34.617,232.237 34.250 C 231.913 33.883,231.409 33.292,231.116 32.937 C 230.823 32.581,230.340 32.051,230.042 31.758 C 229.744 31.466,229.500 31.159,229.500 31.078 C 229.500 30.996,229.312 30.739,229.082 30.506 C 228.373 29.789,227.639 28.937,227.355 28.500 C 227.207 28.271,226.916 27.947,226.709 27.780 C 226.502 27.613,226.333 27.401,226.333 27.310 C 226.333 27.219,226.090 26.902,225.792 26.607 C 225.494 26.311,225.025 25.786,224.750 25.440 C 224.475 25.094,223.931 24.469,223.542 24.052 C 223.152 23.634,222.833 23.233,222.833 23.161 C 222.833 23.089,222.620 22.851,222.360 22.632 C 222.100 22.413,221.819 22.114,221.735 21.968 C 221.497 21.551,220.463 20.319,219.958 19.851 C 219.706 19.617,219.500 19.335,219.500 19.224 C 219.500 19.113,219.275 18.862,219.000 18.667 C 218.725 18.471,218.500 18.220,218.500 18.109 C 218.500 17.998,218.294 17.716,218.042 17.482 C 217.790 17.248,217.321 16.730,217.000 16.330 C 215.628 14.620,215.489 14.500,214.899 14.500 L 214.333 14.500 214.333 39.250 M280.055 14.629 C 279.948 14.697,279.693 15.240,279.488 15.835 C 279.283 16.430,279.024 17.067,278.912 17.250 C 278.801 17.433,278.569 17.996,278.398 18.500 C 278.226 19.004,278.035 19.455,277.973 19.501 C 277.911 19.548,277.693 20.073,277.489 20.668 C 277.285 21.263,277.066 21.787,277.004 21.833 C 276.942 21.879,276.711 22.442,276.490 23.083 C 276.270 23.725,276.038 24.288,275.974 24.335 C 275.849 24.428,275.360 25.691,275.217 26.292 C 275.168 26.498,275.068 26.667,274.994 26.667 C 274.921 26.667,274.699 27.192,274.500 27.833 C 274.301 28.475,274.083 29.000,274.015 29.000 C 273.948 29.000,273.716 29.563,273.500 30.250 C 273.284 30.938,273.052 31.500,272.985 31.500 C 272.917 31.500,272.699 32.025,272.500 32.667 C 272.301 33.308,272.083 33.833,272.015 33.833 C 271.948 33.833,271.716 34.396,271.500 35.083 C 271.284 35.771,271.052 36.333,270.985 36.333 C 270.917 36.333,270.699 36.858,270.500 37.500 C 270.301 38.142,270.076 38.667,270.000 38.667 C 269.924 38.667,269.699 39.192,269.500 39.833 C 269.301 40.475,269.083 41.000,269.015 41.000 C 268.948 41.000,268.716 41.563,268.500 42.250 C 268.284 42.938,268.052 43.500,267.985 43.500 C 267.917 43.500,267.699 44.025,267.500 44.667 C 267.301 45.308,267.076 45.833,267.000 45.833 C 266.924 45.833,266.699 46.358,266.500 47.000 C 266.301 47.642,266.083 48.167,266.015 48.167 C 265.948 48.167,265.716 48.729,265.500 49.417 C 265.284 50.104,265.052 50.667,264.985 50.667 C 264.917 50.667,264.699 51.192,264.500 51.833 C 264.301 52.475,264.083 53.000,264.015 53.000 C 263.948 53.000,263.716 53.563,263.500 54.250 C 263.284 54.938,263.060 55.500,263.001 55.500 C 262.942 55.500,262.722 56.025,262.512 56.667 C 262.301 57.308,262.071 57.833,262.001 57.833 C 261.930 57.833,261.832 58.002,261.783 58.208 C 261.638 58.821,261.150 60.073,261.022 60.165 C 260.956 60.212,260.720 60.794,260.497 61.458 C 260.274 62.123,260.041 62.667,259.980 62.667 C 259.919 62.667,259.824 62.847,259.769 63.068 C 259.713 63.289,259.622 63.590,259.565 63.737 C 259.472 63.980,259.938 64.001,264.606 63.961 L 269.750 63.917 269.803 63.542 C 269.833 63.335,269.915 63.167,269.987 63.167 C 270.059 63.167,270.285 62.604,270.489 61.917 C 270.693 61.229,270.929 60.667,271.013 60.667 C 271.098 60.667,271.167 60.575,271.167 60.463 C 271.167 60.150,271.881 57.928,272.012 57.833 C 272.076 57.788,272.157 57.600,272.191 57.417 C 272.253 57.089,272.404 57.083,280.763 57.040 L 289.272 56.997 289.506 57.857 C 289.635 58.330,289.818 58.799,289.913 58.900 C 290.008 59.001,290.264 59.646,290.481 60.333 C 290.698 61.021,290.930 61.621,290.997 61.667 C 291.063 61.712,291.268 62.237,291.451 62.833 L 291.785 63.917 296.726 63.961 C 301.132 64.000,301.667 63.977,301.667 63.742 C 301.667 63.337,301.144 61.833,301.003 61.833 C 300.935 61.833,300.708 61.327,300.500 60.708 C 300.292 60.090,300.070 59.546,300.007 59.500 C 299.943 59.454,299.711 58.892,299.490 58.250 C 299.270 57.608,299.038 57.045,298.975 56.999 C 298.912 56.952,298.693 56.427,298.489 55.832 C 298.285 55.237,298.066 54.712,298.004 54.667 C 297.942 54.621,297.711 54.058,297.490 53.417 C 297.270 52.775,297.038 52.212,296.974 52.165 C 296.849 52.072,296.360 50.809,296.217 50.208 C 296.168 50.002,296.072 49.833,296.003 49.833 C 295.934 49.833,295.708 49.327,295.500 48.708 C 295.292 48.090,295.070 47.546,295.007 47.500 C 294.943 47.454,294.711 46.892,294.490 46.250 C 294.270 45.608,294.038 45.045,293.975 44.999 C 293.912 44.952,293.693 44.427,293.489 43.832 C 293.285 43.237,293.064 42.712,292.999 42.667 C 292.933 42.621,292.711 42.105,292.505 41.519 C 292.298 40.934,291.997 40.222,291.835 39.936 C 291.674 39.650,291.441 39.060,291.318 38.625 C 291.195 38.190,291.041 37.833,290.977 37.833 C 290.913 37.833,290.693 37.327,290.489 36.708 C 290.284 36.090,290.062 35.546,289.995 35.500 C 289.928 35.454,289.696 34.892,289.480 34.250 C 289.263 33.608,288.996 32.988,288.886 32.872 C 288.775 32.756,288.552 32.212,288.389 31.664 C 288.226 31.115,288.041 30.667,287.977 30.667 C 287.913 30.667,287.693 30.160,287.489 29.542 C 287.284 28.923,287.062 28.379,286.995 28.333 C 286.928 28.287,286.697 27.725,286.481 27.083 C 286.265 26.442,286.033 25.875,285.964 25.825 C 285.895 25.775,285.686 25.291,285.500 24.750 C 285.314 24.209,285.102 23.725,285.029 23.675 C 284.956 23.625,284.762 23.150,284.597 22.620 C 284.433 22.090,284.212 21.565,284.106 21.453 C 284.000 21.341,283.737 20.725,283.520 20.083 C 283.304 19.442,283.072 18.879,283.005 18.833 C 282.938 18.787,282.716 18.244,282.511 17.625 C 282.307 17.006,282.087 16.500,282.023 16.500 C 281.959 16.500,281.774 16.050,281.610 15.500 C 281.307 14.478,280.767 14.176,280.055 14.629 M306.167 39.250 L 306.167 64.000 310.667 64.000 L 315.167 64.000 315.167 52.931 C 315.167 46.842,315.103 41.836,315.025 41.806 C 314.947 41.775,314.838 40.573,314.784 39.134 C 314.682 36.479,314.802 35.986,315.289 37.051 C 315.466 37.439,315.970 38.067,317.125 39.338 C 317.515 39.767,317.833 40.156,317.833 40.203 C 317.833 40.282,318.748 41.284,320.094 42.677 C 320.409 43.003,320.667 43.324,320.667 43.389 C 320.667 43.454,321.036 43.899,321.486 44.379 C 321.937 44.858,322.536 45.512,322.816 45.833 C 323.096 46.154,323.664 46.792,324.079 47.250 C 324.493 47.708,324.832 48.129,324.832 48.186 C 324.833 48.280,325.680 49.213,327.094 50.677 C 327.409 51.003,327.667 51.324,327.667 51.389 C 327.667 51.454,328.023 51.885,328.458 52.347 C 328.894 52.809,329.550 53.527,329.917 53.942 C 330.283 54.358,330.940 55.076,331.375 55.539 C 331.810 56.001,332.167 56.425,332.168 56.481 C 332.168 56.537,332.507 56.958,332.921 57.417 C 333.336 57.875,333.904 58.512,334.184 58.833 C 334.464 59.154,335.063 59.809,335.514 60.288 C 335.964 60.767,336.333 61.213,336.333 61.278 C 336.333 61.343,336.591 61.663,336.906 61.990 C 338.174 63.303,339.093 64.323,339.267 64.612 C 339.378 64.797,339.689 64.937,340.059 64.968 L 340.667 65.020 340.667 40.177 L 340.667 15.333 336.250 15.333 L 331.833 15.333 331.833 28.500 C 331.833 37.167,331.890 41.667,332.000 41.667 C 332.093 41.667,332.167 42.111,332.167 42.667 C 332.167 43.222,332.093 43.667,332.000 43.667 C 331.908 43.667,331.833 43.584,331.833 43.482 C 331.833 43.323,331.107 42.350,329.763 40.707 C 329.572 40.474,329.210 40.091,328.958 39.855 C 328.706 39.619,328.500 39.354,328.500 39.266 C 328.500 39.179,328.256 38.868,327.958 38.575 C 327.660 38.282,327.154 37.722,326.833 37.331 C 326.512 36.939,325.931 36.281,325.542 35.868 C 325.152 35.456,324.832 35.073,324.829 35.017 C 324.827 34.962,324.561 34.617,324.237 34.250 C 323.913 33.883,323.409 33.292,323.116 32.937 C 322.823 32.581,322.340 32.051,322.042 31.758 C 321.744 31.466,321.500 31.165,321.500 31.089 C 321.500 31.014,321.276 30.719,321.003 30.435 C 320.118 29.514,319.171 28.419,319.169 28.316 C 319.168 28.260,318.848 27.878,318.458 27.465 C 318.069 27.053,317.487 26.395,317.167 26.003 C 316.846 25.611,316.340 25.051,316.042 24.758 C 315.744 24.466,315.500 24.165,315.500 24.089 C 315.500 24.014,315.276 23.719,315.003 23.435 C 314.118 22.514,313.171 21.419,313.169 21.316 C 313.168 21.260,312.848 20.878,312.458 20.465 C 312.069 20.053,311.487 19.395,311.167 19.003 C 310.846 18.611,310.340 18.051,310.042 17.758 C 309.744 17.466,309.500 17.155,309.500 17.067 C 309.500 16.979,309.294 16.715,309.042 16.480 C 308.790 16.245,308.293 15.703,307.938 15.276 C 307.403 14.633,307.195 14.500,306.729 14.500 L 306.167 14.500 306.167 39.250 M96.500 39.654 L 96.500 64.000 101.167 64.000 L 105.833 64.000 105.833 57.500 L 105.833 51.000 109.355 51.000 C 112.687 51.000,116.096 50.681,116.333 50.347 C 116.379 50.283,116.942 50.056,117.583 49.843 C 118.225 49.630,118.787 49.409,118.833 49.353 C 118.879 49.296,119.254 49.068,119.667 48.846 C 120.079 48.624,120.477 48.343,120.550 48.221 C 120.623 48.100,120.787 48.000,120.913 48.000 C 121.039 48.000,121.290 47.813,121.470 47.583 C 121.650 47.354,121.872 47.167,121.963 47.167 C 122.054 47.167,122.455 46.786,122.856 46.320 C 123.256 45.854,123.790 45.251,124.042 44.981 C 124.294 44.710,124.500 44.416,124.500 44.328 C 124.500 44.239,124.634 44.033,124.797 43.869 C 124.961 43.706,125.270 43.162,125.485 42.661 C 125.700 42.160,125.927 41.712,125.989 41.667 C 126.136 41.560,126.833 39.328,126.833 38.968 C 126.833 38.817,126.905 38.669,126.994 38.639 C 127.879 38.332,127.908 26.179,127.025 25.500 C 126.965 25.454,126.730 24.855,126.502 24.169 C 126.274 23.483,125.955 22.789,125.794 22.627 C 125.632 22.466,125.500 22.235,125.500 22.115 C 125.500 21.995,125.367 21.751,125.204 21.573 C 125.041 21.395,124.742 21.015,124.539 20.727 C 123.871 19.779,122.252 18.333,121.858 18.333 C 121.772 18.333,121.663 18.231,121.615 18.105 C 121.566 17.979,121.146 17.739,120.680 17.572 C 120.214 17.405,119.833 17.216,119.833 17.154 C 119.833 17.002,119.102 16.721,118.083 16.481 C 117.625 16.373,117.161 16.216,117.052 16.131 C 116.382 15.609,114.037 15.460,105.292 15.384 L 96.500 15.308 96.500 39.654 M134.667 39.655 L 134.667 64.000 139.250 64.000 L 143.833 64.000 143.833 55.583 C 143.833 47.914,143.901 46.539,144.233 47.458 C 144.391 47.896,144.717 48.407,145.047 48.737 C 145.209 48.899,145.454 49.249,145.591 49.516 C 145.729 49.782,145.915 50.000,146.004 50.000 C 146.094 50.000,146.167 50.078,146.167 50.173 C 146.167 50.369,146.727 51.192,147.292 51.826 C 147.498 52.057,147.667 52.337,147.667 52.448 C 147.667 52.559,147.765 52.710,147.884 52.783 C 148.004 52.857,148.272 53.198,148.481 53.542 C 148.690 53.885,148.911 54.167,148.973 54.167 C 149.035 54.167,149.187 54.396,149.311 54.676 C 149.435 54.957,149.753 55.423,150.018 55.714 C 150.283 56.004,150.500 56.332,150.500 56.444 C 150.500 56.556,150.631 56.746,150.792 56.866 C 150.952 56.985,151.183 57.278,151.306 57.515 C 151.428 57.753,151.746 58.203,152.014 58.515 C 152.281 58.828,152.499 59.173,152.500 59.282 C 152.500 59.392,152.636 59.579,152.803 59.699 C 152.969 59.819,153.288 60.254,153.511 60.667 C 153.734 61.079,154.010 61.477,154.125 61.550 C 154.240 61.623,154.457 61.923,154.609 62.217 C 154.761 62.510,154.989 62.826,155.116 62.920 C 155.243 63.013,155.440 63.275,155.553 63.503 L 155.760 63.917 161.463 63.961 C 166.463 63.999,167.167 63.973,167.167 63.752 C 167.167 63.613,167.108 63.500,167.036 63.500 C 166.964 63.500,166.782 63.291,166.631 63.036 C 166.481 62.782,166.128 62.313,165.848 61.995 C 165.568 61.677,165.337 61.326,165.336 61.214 C 165.335 61.103,165.183 60.931,165.000 60.833 C 164.817 60.735,164.667 60.563,164.667 60.451 C 164.667 60.338,164.496 60.060,164.287 59.832 C 164.078 59.603,163.724 59.154,163.500 58.833 C 163.276 58.512,162.922 58.063,162.713 57.835 C 162.504 57.607,162.333 57.329,162.333 57.218 C 162.333 57.107,162.235 56.957,162.116 56.883 C 161.996 56.810,161.731 56.474,161.526 56.137 C 161.322 55.800,161.101 55.500,161.035 55.470 C 160.871 55.396,160.167 54.377,160.167 54.214 C 160.167 54.140,160.017 53.987,159.833 53.872 C 159.650 53.758,159.500 53.556,159.500 53.425 C 159.500 53.293,159.365 53.088,159.201 52.968 C 159.036 52.848,158.733 52.474,158.528 52.137 C 158.322 51.800,158.101 51.500,158.035 51.470 C 157.871 51.396,157.167 50.377,157.167 50.214 C 157.167 50.140,157.017 49.987,156.833 49.872 C 156.650 49.758,156.500 49.556,156.500 49.425 C 156.500 49.293,156.361 49.088,156.191 48.968 C 156.022 48.848,155.755 48.502,155.599 48.200 C 155.443 47.897,155.207 47.608,155.075 47.557 C 154.595 47.373,154.856 47.174,156.042 46.822 C 156.706 46.624,157.287 46.406,157.333 46.336 C 157.379 46.266,157.810 46.040,158.292 45.834 C 158.773 45.628,159.167 45.406,159.167 45.341 C 159.167 45.276,159.373 45.118,159.625 44.989 C 160.399 44.593,162.318 42.515,162.694 41.664 C 162.816 41.391,162.971 41.167,163.040 41.167 C 163.109 41.167,163.330 40.810,163.532 40.375 C 163.733 39.940,163.951 39.546,164.015 39.500 C 164.155 39.400,164.833 37.374,164.833 37.056 C 164.833 36.933,164.893 36.833,164.967 36.833 C 165.912 36.833,165.953 25.433,165.010 24.667 C 164.954 24.621,164.775 24.154,164.614 23.630 C 164.452 23.106,164.229 22.581,164.118 22.463 C 164.007 22.346,163.740 21.926,163.525 21.530 C 163.309 21.134,162.616 20.309,161.986 19.697 C 160.421 18.178,160.338 18.112,159.404 17.665 C 158.953 17.450,158.543 17.213,158.493 17.141 C 158.379 16.974,156.393 16.333,155.992 16.333 C 155.828 16.333,155.668 16.253,155.635 16.154 C 155.463 15.638,152.660 15.458,143.625 15.384 L 134.667 15.310 134.667 39.655 M351.833 39.667 L 351.833 64.000 356.500 64.000 L 361.167 64.000 361.167 39.667 L 361.167 15.333 356.500 15.333 L 351.833 15.333 351.833 39.667 M367.667 19.417 L 367.667 23.500 373.250 23.500 L 378.833 23.500 378.833 43.750 L 378.833 64.000 383.583 64.000 L 388.333 64.000 388.333 43.750 L 388.333 23.500 393.917 23.500 L 399.500 23.500 399.500 19.417 L 399.500 15.333 383.583 15.333 L 367.667 15.333 367.667 19.417 M111.667 22.843 C 112.442 22.940,113.115 23.072,113.163 23.137 C 113.211 23.201,113.687 23.431,114.222 23.648 C 115.217 24.053,116.555 25.219,116.759 25.860 C 116.818 26.047,116.993 26.326,117.148 26.481 C 117.303 26.636,117.535 27.210,117.664 27.757 C 117.792 28.303,117.955 28.790,118.025 28.839 C 118.537 29.195,118.507 36.627,117.993 36.806 C 117.905 36.836,117.833 36.955,117.833 37.070 C 117.833 37.592,117.107 39.413,116.740 39.808 C 116.516 40.049,116.333 40.304,116.333 40.373 C 116.333 40.557,115.067 41.833,114.884 41.833 C 114.799 41.833,114.575 41.977,114.387 42.153 C 113.933 42.576,112.692 42.985,111.481 43.112 C 110.941 43.168,110.500 43.278,110.500 43.357 C 110.500 43.436,109.450 43.500,108.167 43.500 L 105.833 43.500 105.833 33.083 L 105.833 22.667 108.046 22.667 C 109.263 22.667,110.893 22.746,111.667 22.843 M150.343 22.858 C 150.979 22.963,151.500 23.106,151.500 23.176 C 151.500 23.245,151.920 23.434,152.433 23.596 C 152.945 23.757,153.406 23.995,153.455 24.124 C 153.505 24.253,153.724 24.427,153.942 24.510 C 154.161 24.593,154.412 24.851,154.500 25.085 C 154.589 25.318,154.768 25.549,154.898 25.599 C 155.028 25.649,155.306 26.154,155.515 26.720 C 155.724 27.287,155.946 27.787,156.009 27.833 C 156.605 28.273,156.620 34.608,156.025 34.988 C 155.943 35.040,155.818 35.346,155.749 35.666 C 155.587 36.412,155.165 37.327,154.792 37.740 C 154.631 37.917,154.500 38.136,154.500 38.225 C 154.500 38.368,153.607 39.269,152.478 40.265 C 152.261 40.456,151.708 40.752,151.250 40.923 C 150.792 41.093,150.377 41.289,150.330 41.357 C 150.158 41.601,148.045 41.831,145.958 41.832 L 143.833 41.833 143.833 32.250 L 143.833 22.667 146.510 22.667 C 147.981 22.667,149.706 22.753,150.343 22.858 M188.988 34.500 C 189.060 34.500,189.290 35.212,189.500 36.083 C 189.710 36.954,189.940 37.667,190.011 37.667 C 190.082 37.667,190.307 38.229,190.511 38.917 C 190.715 39.604,190.932 40.167,190.994 40.167 C 191.055 40.167,191.283 40.748,191.501 41.458 C 191.718 42.169,191.995 42.849,192.115 42.970 C 192.235 43.091,192.333 43.289,192.333 43.409 C 192.333 43.744,192.883 45.405,193.028 45.506 C 193.098 45.556,193.317 46.118,193.513 46.756 C 193.710 47.395,193.929 47.954,194.001 48.000 C 194.147 48.094,194.697 49.858,194.608 49.947 C 194.577 49.979,192.000 49.985,188.883 49.961 L 183.215 49.917 183.549 48.833 C 183.732 48.237,183.938 47.712,184.006 47.667 C 184.074 47.621,184.296 47.021,184.500 46.333 C 184.704 45.646,184.926 45.046,184.993 45.000 C 185.132 44.905,185.833 42.727,185.833 42.389 C 185.833 42.267,185.897 42.167,185.976 42.167 C 186.054 42.167,186.285 41.604,186.489 40.917 C 186.693 40.229,186.929 39.667,187.013 39.667 C 187.098 39.667,187.167 39.575,187.167 39.463 C 187.167 39.164,187.878 36.931,188.004 36.833 C 188.064 36.787,188.255 36.114,188.429 35.337 C 188.604 34.560,188.772 34.053,188.802 34.212 C 188.833 34.370,188.916 34.500,188.988 34.500 M280.997 35.333 C 281.060 35.379,281.241 35.942,281.400 36.583 C 281.558 37.225,281.790 37.908,281.915 38.100 C 282.040 38.293,282.305 38.987,282.504 39.642 C 282.703 40.297,282.917 40.833,282.980 40.833 C 283.042 40.833,283.272 41.433,283.490 42.167 C 283.708 42.900,283.938 43.500,284.002 43.500 C 284.066 43.500,284.285 44.063,284.489 44.750 C 284.693 45.438,284.913 46.000,284.977 46.000 C 285.041 46.000,285.272 46.600,285.490 47.333 C 285.708 48.067,285.941 48.667,286.008 48.667 C 286.076 48.667,286.176 48.847,286.231 49.068 C 286.287 49.289,286.378 49.589,286.434 49.735 C 286.526 49.974,285.969 50.000,280.684 50.000 C 276.895 50.000,274.833 49.941,274.833 49.833 C 274.833 49.742,274.895 49.667,274.969 49.667 C 275.044 49.667,275.282 49.085,275.498 48.375 C 275.714 47.665,275.941 47.046,276.003 47.000 C 276.133 46.904,276.833 44.713,276.833 44.402 C 276.833 44.288,276.908 44.169,277.000 44.139 C 277.091 44.108,277.315 43.564,277.497 42.929 C 277.678 42.293,277.887 41.731,277.961 41.679 C 278.034 41.626,278.277 40.983,278.500 40.250 C 278.723 39.517,278.956 38.879,279.018 38.833 C 279.171 38.719,279.833 36.539,279.833 36.149 C 279.833 35.975,279.903 35.833,279.988 35.833 C 280.073 35.833,280.236 35.402,280.349 34.875 L 280.556 33.917 280.719 34.583 C 280.808 34.950,280.933 35.287,280.997 35.333 " stroke="none" fill="#ffffff" fill-rule="evenodd"></path><path id="path2" d="" stroke="none" fill="#c0d018" fill-rule="evenodd"></path><path id="path3" d="" stroke="none" fill="#406c18" fill-rule="evenodd"></path><path id="path4" d="" stroke="none" fill="#440418" fill-rule="evenodd"></path></g></svg>