<?xml version="1.0" encoding="UTF-8"?>
<svg xmlns="http://www.w3.org/2000/svg" xmlns:xlink="http://www.w3.org/1999/xlink" width="46px" height="46px" viewBox="0 0 46 46" version="1.1">
<g id="surface1">
<path style=" stroke:none;fill-rule:evenodd;fill:rgb(100%,80%,17.254902%);fill-opacity:1;" d="M 25.15625 13.117188 C 28.808594 16.773438 31.878906 19.765625 31.976562 19.765625 C 32.074219 19.765625 29.167969 16.773438 25.515625 13.117188 C 21.863281 9.460938 18.792969 6.46875 18.695312 6.46875 C 18.597656 6.46875 21.503906 9.460938 25.15625 13.117188 M 30.1875 15.632812 C 31.261719 16.71875 32.21875 17.609375 32.320312 17.609375 C 32.417969 17.609375 31.621094 16.71875 30.546875 15.632812 C 29.472656 14.546875 28.515625 13.65625 28.414062 13.65625 C 28.316406 13.65625 29.113281 14.546875 30.1875 15.632812 M 35.722656 14.429688 C 35.566406 14.6875 35.625 14.746094 35.882812 14.589844 C 36.109375 14.449219 36.296875 14.261719 36.296875 14.175781 C 36.296875 13.875 35.980469 14.015625 35.722656 14.429688 M 25.152344 27.222656 L 18.507812 33.960938 L 25.246094 27.316406 C 28.953125 23.660156 31.984375 20.628906 31.984375 20.578125 C 31.984375 20.320312 31.328125 20.960938 25.152344 27.222656 M 10.960938 31.984375 C 11.082031 32.183594 11.265625 32.34375 11.363281 32.34375 C 11.460938 32.34375 11.441406 32.183594 11.320312 31.984375 C 11.199219 31.785156 11.015625 31.625 10.917969 31.625 C 10.820312 31.625 10.839844 31.785156 10.960938 31.984375 "/>
<path style=" stroke:none;fill-rule:evenodd;fill:rgb(98.823529%,80%,17.254902%);fill-opacity:1;" d="M 4.671875 6.015625 C 4.671875 6.171875 7.171875 8.792969 10.226562 11.84375 C 14.148438 15.761719 15.839844 17.234375 15.988281 16.855469 C 16.101562 16.558594 16.148438 13.980469 16.09375 11.125 L 15.992188 5.929688 L 10.332031 5.832031 C 7.21875 5.777344 4.671875 5.859375 4.671875 6.015625 M 17.96875 20.125 C 17.96875 27.636719 18.089844 33.78125 18.242188 33.78125 C 18.390625 33.78125 21.585938 30.707031 25.335938 26.953125 L 32.15625 20.125 L 25.335938 13.296875 C 21.585938 9.542969 18.390625 6.46875 18.242188 6.46875 C 18.089844 6.46875 17.96875 12.613281 17.96875 20.125 M 35.078125 8.476562 C 34.714844 9.421875 34.832031 14.316406 35.226562 14.558594 C 35.726562 14.867188 41.839844 8.800781 41.53125 8.300781 C 41.382812 8.066406 40.085938 7.90625 38.289062 7.90625 C 35.890625 7.90625 35.253906 8.019531 35.078125 8.476562 M 30.367188 11.140625 L 28.234375 13.296875 L 30.367188 15.453125 C 31.539062 16.640625 32.628906 17.609375 32.78125 17.609375 C 32.9375 17.609375 33.0625 15.667969 33.0625 13.296875 C 33.0625 10.925781 32.9375 8.984375 32.78125 8.984375 C 32.628906 8.984375 31.539062 9.953125 30.367188 11.140625 M 13.308594 26.761719 L 11.035156 29.054688 L 13.121094 31.238281 C 14.265625 32.4375 15.421875 33.421875 15.6875 33.421875 C 16.066406 33.421875 16.171875 32.488281 16.171875 29.128906 C 16.171875 26.769531 16.039062 24.757812 15.875 24.65625 C 15.710938 24.554688 14.554688 25.503906 13.308594 26.761719 M 10.300781 31.867188 C 9.910156 32.257812 10.027344 40.183594 10.425781 40.429688 C 10.835938 40.683594 15.09375 36.769531 15.09375 36.140625 C 15.09375 35.914062 14.324219 35 13.386719 34.105469 C 11.179688 32.007812 10.589844 31.578125 10.300781 31.867188 "/>
</g>
</svg>
